<svg xmlns="http://www.w3.org/2000/svg" viewBox="0 0 44.17 46"><defs><style>.cls-1{fill:#3b1712;}</style></defs><g id="Layer_2" data-name="Layer 2"><g id="Emblems"><path class="cls-1" d="M36.14,29s.31,4.23,3.23,3.14,3.27-8.57-1.55-7.73c-3.13.54-3.23,5.19-4.26,8.53C32.71,35.71,29,45.34,19.05,46c-11,.67-19.26-6.13-19-20.74A26.55,26.55,0,0,0,5,36.91c3,3.75,7.19,6.62,15.13,5.57,12.64-1.68,9.39-16.31,16.78-19,4.54-1.68,7.73,1,7.25,5.76-.28,2.85-2.95,6.33-6.33,6.75C33,36.55,36.14,29,36.14,29Z"/><path class="cls-1" d="M11.16,16.21C6.91,17,4.05,18.53,4,20.26c0,2.62,6.44,4.77,14.45,4.8s14.94-1.74,15-4.36A3.64,3.64,0,0,0,32,18.6c1.61.84,2.53,1.82,2.52,2.86,0,3-7.92,5.44-17.6,5.41S0,24,0,21C0,18.63,4.38,16.94,11.16,16.21Z"/><path class="cls-1" d="M32.52,21.21c0,2.25-6.08,4.06-13.58,4.06S5.35,23.46,5.35,21.21s6.08-4.06,13.59-4.06S32.52,19,32.52,21.21Z"/><path class="cls-1" d="M30.45,27.37a12.49,12.49,0,0,1-2.73,1,22.44,22.44,0,0,1-4.71,11S28.22,36.28,30.45,27.37Z"/><path class="cls-1" d="M16,15.67a4.33,4.33,0,0,1-.08-4c1.1-2,4.18-4.43,4.1-7.88S17.35,0,16.73.19A4.84,4.84,0,0,1,22,2c2.06,2.83,1.11,5.63-1.8,8C18.22,11.56,15.63,12.22,16,15.67Z"/><path class="cls-1" d="M23.62,6.78a3.75,3.75,0,0,1-1.27,4.15c-2.19,1.77-3.17,3.38-3.07,4.84a6.29,6.29,0,0,1,3-2.76C24.61,11.91,26.14,8.88,23.62,6.78Z"/><path class="cls-1" d="M13.51,15.59s-2.07-.95-2.34-2.53a2.7,2.7,0,0,1,.94-2.53c1.1-1,2.43-.93,2.82-2.61,0,0,.47,1.13-1.42,3.18S13.51,15.59,13.51,15.59Z"/></g></g></svg>